<svg width="120" height="60" viewBox="0 0 120 60" fill="none" xmlns="http://www.w3.org/2000/svg">
<g filter="url(#filter0_d_429_454)">
<rect x="50" y="50" width="40" height="40" rx="20" transform="rotate(-180 50 50)" fill="white"/>
<rect x="49.5" y="49.5" width="39" height="39" rx="19.5" transform="rotate(-180 49.5 49.5)" stroke="#4762FF"/>
</g>
<path d="M33.673 37.7062C34.0725 37.3182 34.0763 36.678 33.6814 36.2854L28.8109 31.4425C28.015 30.6512 28.026 29.3601 28.8351 28.5823L33.6617 23.9432C34.0745 23.5464 34.1012 22.8947 33.7223 22.4654C33.3103 21.9986 32.5881 21.9814 32.1544 22.428L26.1535 28.6066C25.3998 29.3827 25.3998 30.6174 26.1535 31.3935L32.2646 37.6856C32.6479 38.0802 33.2784 38.0894 33.673 37.7062Z" fill="#4762FF"/>
<g filter="url(#filter1_d_429_454)">
<rect x="70" y="10" width="40" height="40" rx="20" fill="white"/>
<rect x="70.5" y="10.5" width="39" height="39" rx="19.5" stroke="#4762FF"/>
</g>
<path d="M86.327 22.2938C85.9275 22.6818 85.9237 23.322 86.3186 23.7146L91.1891 28.5575C91.985 29.3488 91.974 30.6399 91.1649 31.4177L86.3383 36.0568C85.9255 36.4536 85.8988 37.1053 86.2777 37.5346C86.6897 38.0014 87.4119 38.0186 87.8456 37.572L93.8465 31.3934C94.6002 30.6173 94.6002 29.3826 93.8465 28.6065L87.7354 22.3144C87.3521 21.9198 86.7216 21.9106 86.327 22.2938Z" fill="#4762FF"/>
<defs>
<filter id="filter0_d_429_454" x="0" y="0" width="60" height="60" filterUnits="userSpaceOnUse" color-interpolation-filters="sRGB">
<feFlood flood-opacity="0" result="BackgroundImageFix"/>
<feColorMatrix in="SourceAlpha" type="matrix" values="0 0 0 0 0 0 0 0 0 0 0 0 0 0 0 0 0 0 127 0" result="hardAlpha"/>
<feOffset/>
<feGaussianBlur stdDeviation="5"/>
<feComposite in2="hardAlpha" operator="out"/>
<feColorMatrix type="matrix" values="0 0 0 0 0 0 0 0 0 0 0 0 0 0 0 0 0 0 0.15 0"/>
<feBlend mode="normal" in2="BackgroundImageFix" result="effect1_dropShadow_429_454"/>
<feBlend mode="normal" in="SourceGraphic" in2="effect1_dropShadow_429_454" result="shape"/>
</filter>
<filter id="filter1_d_429_454" x="60" y="0" width="60" height="60" filterUnits="userSpaceOnUse" color-interpolation-filters="sRGB">
<feFlood flood-opacity="0" result="BackgroundImageFix"/>
<feColorMatrix in="SourceAlpha" type="matrix" values="0 0 0 0 0 0 0 0 0 0 0 0 0 0 0 0 0 0 127 0" result="hardAlpha"/>
<feOffset/>
<feGaussianBlur stdDeviation="5"/>
<feComposite in2="hardAlpha" operator="out"/>
<feColorMatrix type="matrix" values="0 0 0 0 0 0 0 0 0 0 0 0 0 0 0 0 0 0 0.15 0"/>
<feBlend mode="normal" in2="BackgroundImageFix" result="effect1_dropShadow_429_454"/>
<feBlend mode="normal" in="SourceGraphic" in2="effect1_dropShadow_429_454" result="shape"/>
</filter>
</defs>
</svg>
